<svg xmlns="http://www.w3.org/2000/svg" viewBox="0 0 400 180" width="400" height="180">
  <defs>
    <linearGradient id="bgGrad3" x1="0%" y1="0%" x2="0%" y2="100%">
      <stop offset="0%" style="stop-color:#f8fafc"/>
      <stop offset="100%" style="stop-color:#f1f5f9"/>
    </linearGradient>
    <linearGradient id="kpiGrad" x1="0%" y1="0%" x2="100%" y2="100%">
      <stop offset="0%" style="stop-color:#4f46e5"/>
      <stop offset="100%" style="stop-color:#6366f1"/>
    </linearGradient>
  </defs>
  <rect width="400" height="180" fill="url(#bgGrad3)"/>
  
  <!-- Dashboard Layout -->
  <!-- KPI Cards Row -->
  <!-- Card 1 -->
  <rect x="15" y="15" width="110" height="55" rx="8" fill="white" stroke="#e2e8f0" stroke-width="1"/>
  <text x="25" y="35" fill="#64748b" font-size="9" font-family="Inter, sans-serif">CA Total</text>
  <text x="25" y="55" fill="#4f46e5" font-size="16" font-family="JetBrains Mono, monospace" font-weight="700">€2.4M</text>
  <text x="70" y="55" fill="#22c55e" font-size="9" font-family="Inter, sans-serif">▲ 12%</text>
  
  <!-- Card 2 -->
  <rect x="135" y="15" width="110" height="55" rx="8" fill="white" stroke="#e2e8f0" stroke-width="1"/>
  <text x="145" y="35" fill="#64748b" font-size="9" font-family="Inter, sans-serif">Commandes</text>
  <text x="145" y="55" fill="#06b6d4" font-size="16" font-family="JetBrains Mono, monospace" font-weight="700">1,847</text>
  <text x="195" y="55" fill="#22c55e" font-size="9" font-family="Inter, sans-serif">▲ 8%</text>
  
  <!-- Card 3 -->
  <rect x="255" y="15" width="130" height="55" rx="8" fill="white" stroke="#e2e8f0" stroke-width="1"/>
  <text x="265" y="35" fill="#64748b" font-size="9" font-family="Inter, sans-serif">Panier Moyen</text>
  <text x="265" y="55" fill="#6366f1" font-size="16" font-family="JetBrains Mono, monospace" font-weight="700">€1,302</text>
  <text x="325" y="55" fill="#ef4444" font-size="9" font-family="Inter, sans-serif">▼ 2%</text>
  
  <!-- Main Chart Area -->
  <rect x="15" y="80" width="230" height="85" rx="8" fill="white" stroke="#e2e8f0" stroke-width="1"/>
  <text x="25" y="98" fill="#0f172a" font-size="10" font-family="Inter, sans-serif" font-weight="600">Évolution CA Mensuel</text>
  
  <!-- Chart Bars -->
  <rect x="30" y="145" width="20" height="12" rx="2" fill="#e2e8f0"/>
  <rect x="55" y="135" width="20" height="22" rx="2" fill="#cbd5e1"/>
  <rect x="80" y="125" width="20" height="32" rx="2" fill="#94a3b8"/>
  <rect x="105" y="115" width="20" height="42" rx="2" fill="#64748b"/>
  <rect x="130" y="100" width="20" height="57" rx="2" fill="#4f46e5"/>
  <rect x="155" y="95" width="20" height="62" rx="2" fill="#6366f1"/>
  <rect x="180" y="88" width="20" height="69" rx="2" fill="#06b6d4"/>
  <rect x="205" y="78" width="20" height="79" rx="2" fill="url(#kpiGrad)"/>
  
  <!-- Right Side - Top Products -->
  <rect x="255" y="80" width="130" height="85" rx="8" fill="white" stroke="#e2e8f0" stroke-width="1"/>
  <text x="265" y="98" fill="#0f172a" font-size="10" font-family="Inter, sans-serif" font-weight="600">Top Vendeurs</text>
  
  <!-- Mini bar chart for top sellers -->
  <rect x="265" y="110" width="80" height="8" rx="4" fill="#f1f5f9"/>
  <rect x="265" y="110" width="65" height="8" rx="4" fill="#4f46e5"/>
  <text x="350" y="116" fill="#475569" font-size="8" font-family="Inter, sans-serif">P. Martin</text>
  
  <rect x="265" y="125" width="80" height="8" rx="4" fill="#f1f5f9"/>
  <rect x="265" y="125" width="52" height="8" rx="4" fill="#6366f1"/>
  <text x="320" y="131" fill="#475569" font-size="8" font-family="Inter, sans-serif">L. Dupont</text>
  
  <rect x="265" y="140" width="80" height="8" rx="4" fill="#f1f5f9"/>
  <rect x="265" y="140" width="38" height="8" rx="4" fill="#06b6d4"/>
  <text x="307" y="146" fill="#475569" font-size="8" font-family="Inter, sans-serif">S. Bernard</text>
  
  <!-- X axis labels -->
  <text x="30" y="163" fill="#94a3b8" font-size="7" font-family="Inter, sans-serif">J</text>
  <text x="55" y="163" fill="#94a3b8" font-size="7" font-family="Inter, sans-serif">F</text>
  <text x="80" y="163" fill="#94a3b8" font-size="7" font-family="Inter, sans-serif">M</text>
  <text x="105" y="163" fill="#94a3b8" font-size="7" font-family="Inter, sans-serif">A</text>
  <text x="130" y="163" fill="#94a3b8" font-size="7" font-family="Inter, sans-serif">M</text>
  <text x="155" y="163" fill="#94a3b8" font-size="7" font-family="Inter, sans-serif">J</text>
  <text x="180" y="163" fill="#94a3b8" font-size="7" font-family="Inter, sans-serif">J</text>
  <text x="205" y="163" fill="#94a3b8" font-size="7" font-family="Inter, sans-serif">A</text>
</svg>
