<svg xmlns="http://www.w3.org/2000/svg" viewBox="0 0 400 180" width="400" height="180">
  <defs>
    <linearGradient id="bgGrad2" x1="0%" y1="0%" x2="0%" y2="100%">
      <stop offset="0%" style="stop-color:#f8fafc"/>
      <stop offset="100%" style="stop-color:#f1f5f9"/>
    </linearGradient>
    <radialGradient id="cluster1" cx="30%" cy="35%" r="25%">
      <stop offset="0%" style="stop-color:#4f46e5;stop-opacity:0.6"/>
      <stop offset="100%" style="stop-color:#4f46e5;stop-opacity:0.1"/>
    </radialGradient>
    <radialGradient id="cluster2" cx="65%" cy="30%" r="20%">
      <stop offset="0%" style="stop-color:#06b6d4;stop-opacity:0.6"/>
      <stop offset="100%" style="stop-color:#06b6d4;stop-opacity:0.1"/>
    </radialGradient>
    <radialGradient id="cluster3" cx="50%" cy="70%" r="25%">
      <stop offset="0%" style="stop-color:#6366f1;stop-opacity:0.6"/>
      <stop offset="100%" style="stop-color:#6366f1;stop-opacity:0.1"/>
    </radialGradient>
  </defs>
  <rect width="400" height="180" fill="url(#bgGrad2)"/>
  
  <!-- Scatter plot representing K-Means clusters -->
  <!-- Cluster zones -->
  <ellipse cx="120" cy="63" rx="60" ry="50" fill="url(#cluster1)"/>
  <ellipse cx="260" cy="54" rx="50" ry="40" fill="url(#cluster2)"/>
  <ellipse cx="200" cy="126" rx="55" ry="45" fill="url(#cluster3)"/>
  
  <!-- Data points - Cluster 1 (purple) -->
  <circle cx="100" cy="45" r="4" fill="#4f46e5"/>
  <circle cx="110" cy="63" r="4" fill="#4f46e5"/>
  <circle cx="130" cy="54" r="4" fill="#4f46e5"/>
  <circle cx="140" cy="72" r="4" fill="#4f46e5"/>
  <circle cx="90" cy="72" r="4" fill="#4f46e5"/>
  <circle cx="125" cy="36" r="4" fill="#4f46e5"/>
  <circle cx="155" cy="54" r="4" fill="#4f46e5"/>
  <circle cx="70" cy="54" r="4" fill="#4f46e5"/>
  
  <!-- Data points - Cluster 2 (cyan) -->
  <circle cx="250" cy="36" r="4" fill="#06b6d4"/>
  <circle cx="275" cy="45" r="4" fill="#06b6d4"/>
  <circle cx="290" cy="54" r="4" fill="#06b6d4"/>
  <circle cx="260" cy="63" r="4" fill="#06b6d4"/>
  <circle cx="285" cy="72" r="4" fill="#06b6d4"/>
  <circle cx="235" cy="54" r="4" fill="#06b6d4"/>
  <circle cx="305" cy="45" r="4" fill="#06b6d4"/>
  
  <!-- Data points - Cluster 3 (indigo) -->
  <circle cx="175" cy="117" r="4" fill="#6366f1"/>
  <circle cx="200" cy="108" r="4" fill="#6366f1"/>
  <circle cx="225" cy="117" r="4" fill="#6366f1"/>
  <circle cx="185" cy="135" r="4" fill="#6366f1"/>
  <circle cx="215" cy="135" r="4" fill="#6366f1"/>
  <circle cx="200" cy="144" r="4" fill="#6366f1"/>
  <circle cx="160" cy="126" r="4" fill="#6366f1"/>
  <circle cx="250" cy="126" r="4" fill="#6366f1"/>
  
  <!-- Centroids -->
  <circle cx="120" cy="54" r="6" fill="white" stroke="#4f46e5" stroke-width="2"/>
  <circle cx="260" cy="54" r="6" fill="white" stroke="#06b6d4" stroke-width="2"/>
  <circle cx="200" cy="126" r="6" fill="white" stroke="#6366f1" stroke-width="2"/>
  
  <!-- Legend -->
  <rect x="295" y="130" width="90" height="45" rx="6" fill="white" stroke="#e2e8f0" stroke-width="1"/>
  <circle cx="310" cy="142" r="4" fill="#4f46e5"/>
  <text x="320" y="146" fill="#475569" font-size="9" font-family="Inter, sans-serif">Segment A</text>
  <circle cx="310" cy="157" r="4" fill="#06b6d4"/>
  <text x="320" y="161" fill="#475569" font-size="9" font-family="Inter, sans-serif">Segment B</text>
  <circle cx="350" cy="142" r="4" fill="#6366f1"/>
  <text x="360" y="146" fill="#475569" font-size="9" font-family="Inter, sans-serif">Segment C</text>
  
  <!-- Title -->
  <text x="15" y="20" fill="#0f172a" font-size="12" font-family="Inter, sans-serif" font-weight="600">K-Means Clustering: 3 Segments Clients</text>
  <text x="15" y="35" fill="#64748b" font-size="9" font-family="JetBrains Mono, monospace">Silhouette Score: 0.72 | Inertie: 245.8</text>
</svg>
